<?xml version="1.0" encoding="UTF-8" standalone="no"?>
<svg width="512px" height="486px" viewBox="0 0 512 486" version="1.1" xmlns="http://www.w3.org/2000/svg" xmlns:xlink="http://www.w3.org/1999/xlink" xmlns:sketch="http://www.bohemiancoding.com/sketch/ns">
    <title>Slice 1</title>
    <description>Created with Sketch (http://www.bohemiancoding.com/sketch)</description>
    <defs></defs>
    <g id="Page 1" stroke="none" stroke-width="1" fill="none" fill-rule="evenodd">
        <path d="M426.110723,3.58311068 C426.234747,2.50824099 426.317429,0.358501602 426.317429,0.358501602 L93.2318479,0.358501602 C93.2318479,0.358501602 93.4178831,3.41774611 93.6659299,4.94736836 C91.4128377,4.51328637 89.0977337,4.09987495 86.7206181,3.7071341 C0.110925591,-10.741595 -12.1053819,95.8565396 8.99927112,136.928964 C30.1039241,178.001389 97.8207147,184.677983 125.581292,203.550215 C153.341868,222.422446 127.793043,219.094484 127.793043,219.094484 C127.793043,219.094484 104.476639,202.434004 107.804601,231.310791 C110.967198,258.719969 155.140208,250.058999 160.555898,212.06649 C161.114003,212.603925 161.651438,213.244712 162.209543,213.761477 C174.963286,227.941488 194.620999,245.697509 222.236882,260.166909 C222.236882,260.166909 252.746644,266.822832 233.957095,291.255447 C233.626366,291.689529 233.357649,292.102941 233.068261,292.516352 C224.241927,300.164463 214.340723,308.825433 214.878158,320.586988 L214.878158,320.711011 C214.919499,321.599846 215.022852,322.530021 215.188217,323.460197 C217.213933,334.332917 227.776595,341.112865 239.083397,344.730214 C237.698469,353.163807 231.910709,368.770089 210.061915,388.138414 C163.408436,395.104396 129.756747,412.26097 127.255608,432.600812 L127.255608,432.600812 C127.255608,432.683494 127.255608,432.766176 127.234937,432.828188 L127.234937,432.828188 L108.920811,481.197324 L109.272211,481.197324 C108.982823,482.644264 108.796788,485.641497 108.796788,485.641497 L404.137906,485.641497 C404.137906,485.641497 403.600472,480.039772 402.566943,477.352598 L385.947804,434.502504 L385.782439,434.502504 C385.224334,414.576074 354.797253,397.4195 311.058325,389.502671 C287.948627,369.5349 281.91282,353.370513 280.486551,344.750885 C291.793353,341.133535 302.376685,334.353588 304.381731,323.480867 C304.547095,322.550692 304.650448,321.641187 304.71246,320.752352 L304.71246,320.566317 C305.229224,308.846103 295.328021,300.185134 286.522357,292.537023 C286.212299,292.123611 285.964252,291.7102 285.612852,291.276118 C266.843974,266.843503 297.333066,260.187579 297.333066,260.187579 C321.889704,247.330484 340.121148,231.868897 352.85422,218.619061 C362.052624,250.968504 401.244026,257.066323 404.199918,231.310791 C407.52788,202.454674 384.211476,219.094484 384.211476,219.094484 C384.211476,219.094484 358.683321,222.422446 386.423227,203.550215 C414.163133,184.677983 481.900594,178.022059 503.025918,136.928964 C524.027218,96.0012336 511.934934,-9.99745447 426.110723,3.58311068 L426.110723,3.58311068 Z M27.8715024,124.712657 C5.67130919,85.8313127 30.0832535,35.8912132 63.404214,25.8866568 C80.5194468,20.7603552 91.4541788,25.0184928 98.0687616,30.3721707 C103.236404,64.37526 115.452712,130.686452 137.218823,176.637131 C103.257075,159.58391 43.4364424,151.99781 27.8715024,124.712657 L27.8715024,124.712657 Z M484.112346,124.712657 C469.911663,149.558683 418.958706,158.074958 384.335499,172.316982 C405.70887,124.691986 417.759813,57.5746421 422.658738,25.5145865 C429.087286,23.2201531 437.520879,22.5586949 448.600305,25.8866568 C481.900594,35.8912132 506.312539,85.8313127 484.112346,124.712657 L484.112346,124.712657 Z M484.112346,124.712657" id="grail" fill="#E6D9B4"></path>
    </g>
</svg>